<mxfile host="app.diagrams.net" modified="2023-05-04T00:51:35.165Z" agent="Mozilla/5.0 (Windows NT 10.0; Win64; x64) AppleWebKit/537.36 (KHTML, like Gecko) Chrome/112.0.0.0 Safari/537.36 Edg/112.0.1722.64" etag="yBidqTUl_Rorhz5btY27" version="21.2.7" type="google">
  <diagram name="Page-1" id="qvmPQSpvG-Afi3AAHGun">
    <mxGraphModel grid="1" page="1" gridSize="10" guides="1" tooltips="1" connect="1" arrows="1" fold="1" pageScale="1" pageWidth="850" pageHeight="1100" math="0" shadow="0">
      <root>
        <mxCell id="0" />
        <mxCell id="1" parent="0" />
        <mxCell id="C__IWVD8pp51BxmxhyLC-21" style="edgeStyle=orthogonalEdgeStyle;rounded=0;orthogonalLoop=1;jettySize=auto;html=1;" edge="1" parent="1" source="C__IWVD8pp51BxmxhyLC-1">
          <mxGeometry relative="1" as="geometry">
            <mxPoint x="240" y="440" as="targetPoint" />
            <Array as="points">
              <mxPoint x="200" y="520" />
              <mxPoint x="200" y="440" />
              <mxPoint x="240" y="440" />
            </Array>
          </mxGeometry>
        </mxCell>
        <mxCell id="C__IWVD8pp51BxmxhyLC-1" value="Picker" style="shape=umlActor;verticalLabelPosition=bottom;verticalAlign=top;html=1;outlineConnect=0;" vertex="1" parent="1">
          <mxGeometry x="70" y="490" width="30" height="60" as="geometry" />
        </mxCell>
        <mxCell id="C__IWVD8pp51BxmxhyLC-20" style="edgeStyle=orthogonalEdgeStyle;rounded=0;orthogonalLoop=1;jettySize=auto;html=1;" edge="1" parent="1">
          <mxGeometry relative="1" as="geometry">
            <Array as="points">
              <mxPoint x="230" y="390" />
            </Array>
            <mxPoint x="240" y="390" as="targetPoint" />
            <mxPoint x="110" y="390" as="sourcePoint" />
          </mxGeometry>
        </mxCell>
        <mxCell id="C__IWVD8pp51BxmxhyLC-2" value="Admin&lt;br&gt;" style="shape=umlActor;verticalLabelPosition=bottom;verticalAlign=top;html=1;outlineConnect=0;" vertex="1" parent="1">
          <mxGeometry x="70" y="370" width="30" height="60" as="geometry" />
        </mxCell>
        <mxCell id="C__IWVD8pp51BxmxhyLC-19" style="edgeStyle=orthogonalEdgeStyle;rounded=0;orthogonalLoop=1;jettySize=auto;html=1;" edge="1" parent="1">
          <mxGeometry relative="1" as="geometry">
            <Array as="points">
              <mxPoint x="200" y="250" />
              <mxPoint x="200" y="340" />
            </Array>
            <mxPoint x="240" y="340" as="targetPoint" />
            <mxPoint x="120" y="250" as="sourcePoint" />
          </mxGeometry>
        </mxCell>
        <mxCell id="C__IWVD8pp51BxmxhyLC-6" value="Dispatcher" style="shape=umlActor;verticalLabelPosition=bottom;verticalAlign=top;html=1;outlineConnect=0;" vertex="1" parent="1">
          <mxGeometry x="70" y="230" width="30" height="60" as="geometry" />
        </mxCell>
        <object placeholders="1" c4Name="Dispatcher app" c4Type="" c4Application="Take your kid!" label="&lt;font style=&quot;font-size: 16px&quot;&gt;&lt;b&gt;&lt;div style=&quot;text-align: left&quot;&gt;%c4Name%&lt;/div&gt;&lt;/b&gt;&lt;/font&gt;&lt;div style=&quot;text-align: left&quot;&gt;[%c4Application%]&lt;/div&gt;" id="C__IWVD8pp51BxmxhyLC-11">
          <mxCell style="rounded=1;fontSize=11;whiteSpace=wrap;html=1;dashed=1;arcSize=20;fillColor=none;strokeColor=#666666;fontColor=#333333;labelBackgroundColor=none;align=left;verticalAlign=bottom;labelBorderColor=none;spacingTop=0;spacing=10;dashPattern=8 4;metaEdit=1;rotatable=0;perimeter=rectanglePerimeter;noLabel=0;labelPadding=0;allowArrows=0;connectable=0;expand=0;recursiveResize=0;editable=1;pointerEvents=0;absoluteArcSize=1;points=[[0.25,0,0],[0.5,0,0],[0.75,0,0],[1,0.25,0],[1,0.5,0],[1,0.75,0],[0.75,1,0],[0.5,1,0],[0.25,1,0],[0,0.75,0],[0,0.5,0],[0,0.25,0]];" vertex="1" parent="1">
            <mxGeometry x="240" y="20" width="570" height="650" as="geometry" />
          </mxCell>
        </object>
        <mxCell id="C__IWVD8pp51BxmxhyLC-14" style="edgeStyle=orthogonalEdgeStyle;rounded=0;orthogonalLoop=1;jettySize=auto;html=1;" edge="1" parent="1" source="C__IWVD8pp51BxmxhyLC-12" target="C__IWVD8pp51BxmxhyLC-13">
          <mxGeometry relative="1" as="geometry" />
        </mxCell>
        <mxCell id="C__IWVD8pp51BxmxhyLC-12" value="" style="html=1;verticalLabelPosition=bottom;align=center;labelBackgroundColor=#ffffff;verticalAlign=top;strokeWidth=2;strokeColor=#0080F0;shadow=0;dashed=0;shape=mxgraph.ios7.icons.smartphone;" vertex="1" parent="1">
          <mxGeometry x="300" y="191.5" width="50" height="91.5" as="geometry" />
        </mxCell>
        <mxCell id="C__IWVD8pp51BxmxhyLC-22" style="edgeStyle=orthogonalEdgeStyle;rounded=0;orthogonalLoop=1;jettySize=auto;html=1;exitX=0.65;exitY=0.5;exitDx=0;exitDy=0;exitPerimeter=0;entryX=0;entryY=0.5;entryDx=0;entryDy=0;entryPerimeter=0;" edge="1" parent="1" source="C__IWVD8pp51BxmxhyLC-13" target="C__IWVD8pp51BxmxhyLC-17">
          <mxGeometry relative="1" as="geometry">
            <Array as="points">
              <mxPoint x="475" y="220" />
              <mxPoint x="551" y="220" />
              <mxPoint x="551" y="296" />
            </Array>
          </mxGeometry>
        </mxCell>
        <mxCell id="C__IWVD8pp51BxmxhyLC-23" style="edgeStyle=orthogonalEdgeStyle;rounded=0;orthogonalLoop=1;jettySize=auto;html=1;exitX=0.98;exitY=0.43;exitDx=0;exitDy=0;exitPerimeter=0;entryX=0;entryY=0.5;entryDx=0;entryDy=0;entryPerimeter=0;" edge="1" parent="1" source="C__IWVD8pp51BxmxhyLC-13" target="C__IWVD8pp51BxmxhyLC-15">
          <mxGeometry relative="1" as="geometry">
            <Array as="points">
              <mxPoint x="540" y="230" />
              <mxPoint x="540" y="406" />
            </Array>
          </mxGeometry>
        </mxCell>
        <mxCell id="C__IWVD8pp51BxmxhyLC-24" style="edgeStyle=orthogonalEdgeStyle;rounded=0;orthogonalLoop=1;jettySize=auto;html=1;exitX=0;exitY=0.8;exitDx=0;exitDy=0;exitPerimeter=0;entryX=0;entryY=0.5;entryDx=0;entryDy=0;entryPerimeter=0;" edge="1" parent="1" source="C__IWVD8pp51BxmxhyLC-13" target="C__IWVD8pp51BxmxhyLC-16">
          <mxGeometry relative="1" as="geometry">
            <Array as="points">
              <mxPoint x="530" y="264" />
              <mxPoint x="530" y="514" />
            </Array>
          </mxGeometry>
        </mxCell>
        <mxCell id="C__IWVD8pp51BxmxhyLC-25" style="edgeStyle=orthogonalEdgeStyle;rounded=0;orthogonalLoop=1;jettySize=auto;html=1;exitX=0;exitY=0.21;exitDx=0;exitDy=0;exitPerimeter=0;entryX=1.04;entryY=0.213;entryDx=0;entryDy=0;entryPerimeter=0;" edge="1" parent="1" source="C__IWVD8pp51BxmxhyLC-13" target="C__IWVD8pp51BxmxhyLC-12">
          <mxGeometry relative="1" as="geometry">
            <Array as="points">
              <mxPoint x="425" y="211" />
            </Array>
            <mxPoint x="360" y="210" as="targetPoint" />
          </mxGeometry>
        </mxCell>
        <mxCell id="C__IWVD8pp51BxmxhyLC-27" style="edgeStyle=orthogonalEdgeStyle;rounded=0;orthogonalLoop=1;jettySize=auto;html=1;exitX=1;exitY=0.21;exitDx=0;exitDy=0;exitPerimeter=0;" edge="1" parent="1" source="C__IWVD8pp51BxmxhyLC-13" target="C__IWVD8pp51BxmxhyLC-26">
          <mxGeometry relative="1" as="geometry">
            <Array as="points">
              <mxPoint x="610" y="210" />
              <mxPoint x="610" y="210" />
            </Array>
          </mxGeometry>
        </mxCell>
        <mxCell id="C__IWVD8pp51BxmxhyLC-38" style="edgeStyle=orthogonalEdgeStyle;rounded=0;orthogonalLoop=1;jettySize=auto;html=1;exitX=0.5;exitY=0;exitDx=0;exitDy=0;exitPerimeter=0;" edge="1" parent="1" source="C__IWVD8pp51BxmxhyLC-13" target="C__IWVD8pp51BxmxhyLC-35">
          <mxGeometry relative="1" as="geometry" />
        </mxCell>
        <mxCell id="C__IWVD8pp51BxmxhyLC-13" value="API APP" style="outlineConnect=0;dashed=0;verticalLabelPosition=bottom;verticalAlign=top;align=center;html=1;shape=mxgraph.aws3.api_gateway;fillColor=#D9A741;gradientColor=none;" vertex="1" parent="1">
          <mxGeometry x="425" y="190" width="76.5" height="93" as="geometry" />
        </mxCell>
        <mxCell id="C__IWVD8pp51BxmxhyLC-30" style="edgeStyle=orthogonalEdgeStyle;rounded=0;orthogonalLoop=1;jettySize=auto;html=1;exitX=1;exitY=0.5;exitDx=0;exitDy=0;exitPerimeter=0;entryX=0.5;entryY=1;entryDx=0;entryDy=0;entryPerimeter=0;" edge="1" parent="1" source="C__IWVD8pp51BxmxhyLC-15" target="C__IWVD8pp51BxmxhyLC-28">
          <mxGeometry relative="1" as="geometry">
            <mxPoint x="740" y="381" as="targetPoint" />
          </mxGeometry>
        </mxCell>
        <mxCell id="C__IWVD8pp51BxmxhyLC-15" value="Register" style="outlineConnect=0;dashed=0;verticalLabelPosition=bottom;verticalAlign=top;align=center;html=1;shape=mxgraph.aws3.lambda_function;fillColor=#F58534;gradientColor=none;" vertex="1" parent="1">
          <mxGeometry x="630" y="380" width="69" height="72" as="geometry" />
        </mxCell>
        <mxCell id="C__IWVD8pp51BxmxhyLC-16" value="Notifier" style="outlineConnect=0;dashed=0;verticalLabelPosition=bottom;verticalAlign=top;align=center;html=1;shape=mxgraph.aws3.lambda_function;fillColor=#F58534;gradientColor=none;" vertex="1" parent="1">
          <mxGeometry x="630" y="488" width="69" height="72" as="geometry" />
        </mxCell>
        <mxCell id="C__IWVD8pp51BxmxhyLC-31" style="edgeStyle=orthogonalEdgeStyle;rounded=0;orthogonalLoop=1;jettySize=auto;html=1;exitX=1;exitY=0.5;exitDx=0;exitDy=0;exitPerimeter=0;entryX=0.5;entryY=0;entryDx=0;entryDy=0;entryPerimeter=0;" edge="1" parent="1" source="C__IWVD8pp51BxmxhyLC-17" target="C__IWVD8pp51BxmxhyLC-28">
          <mxGeometry relative="1" as="geometry">
            <mxPoint x="759.5" y="342" as="targetPoint" />
          </mxGeometry>
        </mxCell>
        <mxCell id="C__IWVD8pp51BxmxhyLC-17" value="Dispatcher" style="outlineConnect=0;dashed=0;verticalLabelPosition=bottom;verticalAlign=top;align=center;html=1;shape=mxgraph.aws3.lambda_function;fillColor=#F58534;gradientColor=none;" vertex="1" parent="1">
          <mxGeometry x="630" y="270" width="69" height="72" as="geometry" />
        </mxCell>
        <mxCell id="C__IWVD8pp51BxmxhyLC-32" style="edgeStyle=orthogonalEdgeStyle;rounded=0;orthogonalLoop=1;jettySize=auto;html=1;" edge="1" parent="1" source="C__IWVD8pp51BxmxhyLC-26">
          <mxGeometry relative="1" as="geometry">
            <mxPoint x="770" y="330" as="targetPoint" />
          </mxGeometry>
        </mxCell>
        <mxCell id="C__IWVD8pp51BxmxhyLC-26" value="Picker" style="outlineConnect=0;dashed=0;verticalLabelPosition=bottom;verticalAlign=top;align=center;html=1;shape=mxgraph.aws3.lambda_function;fillColor=#F58534;gradientColor=none;" vertex="1" parent="1">
          <mxGeometry x="650" y="170" width="69" height="72" as="geometry" />
        </mxCell>
        <mxCell id="C__IWVD8pp51BxmxhyLC-33" style="edgeStyle=orthogonalEdgeStyle;rounded=0;orthogonalLoop=1;jettySize=auto;html=1;exitX=0.75;exitY=1;exitDx=0;exitDy=0;exitPerimeter=0;entryX=1;entryY=0.5;entryDx=0;entryDy=0;entryPerimeter=0;" edge="1" parent="1" source="C__IWVD8pp51BxmxhyLC-28" target="C__IWVD8pp51BxmxhyLC-16">
          <mxGeometry relative="1" as="geometry">
            <mxPoint x="779" y="420" as="sourcePoint" />
          </mxGeometry>
        </mxCell>
        <mxCell id="C__IWVD8pp51BxmxhyLC-28" value="" style="sketch=0;points=[[0,0,0],[0.25,0,0],[0.5,0,0],[0.75,0,0],[1,0,0],[0,1,0],[0.25,1,0],[0.5,1,0],[0.75,1,0],[1,1,0],[0,0.25,0],[0,0.5,0],[0,0.75,0],[1,0.25,0],[1,0.5,0],[1,0.75,0]];outlineConnect=0;fontColor=#232F3E;gradientColor=#4D72F3;gradientDirection=north;fillColor=#3334B9;strokeColor=#ffffff;dashed=0;verticalLabelPosition=bottom;verticalAlign=top;align=center;html=1;fontSize=12;fontStyle=0;aspect=fixed;shape=mxgraph.aws4.resourceIcon;resIcon=mxgraph.aws4.dynamodb;" vertex="1" parent="1">
          <mxGeometry x="710" y="332" width="78" height="78" as="geometry" />
        </mxCell>
        <mxCell id="C__IWVD8pp51BxmxhyLC-34" value="Fuera de scope:&lt;br&gt;&lt;br&gt;* Security events: pick confirmation&lt;br&gt;* GPS&lt;br&gt;* School bus route&lt;br&gt;* build IOS&lt;br&gt;* Picker waiting time" style="text;html=1;strokeColor=none;fillColor=none;align=left;verticalAlign=middle;whiteSpace=wrap;rounded=0;" vertex="1" parent="1">
          <mxGeometry x="10" y="10" width="210" height="170" as="geometry" />
        </mxCell>
        <mxCell id="C__IWVD8pp51BxmxhyLC-35" value="Autenticación" style="dashed=0;outlineConnect=0;html=1;align=center;labelPosition=center;verticalLabelPosition=bottom;verticalAlign=top;shape=mxgraph.webicons.gmail;gradientColor=#DFDEDE" vertex="1" parent="1">
          <mxGeometry x="422.05" y="30" width="82.4" height="72.4" as="geometry" />
        </mxCell>
        <mxCell id="C__IWVD8pp51BxmxhyLC-40" value="* Serverless architecture&lt;br&gt;&lt;span style=&quot;white-space: pre;&quot;&gt; &lt;/span&gt;* Api gateway&lt;br&gt;&lt;span style=&quot;white-space: pre;&quot;&gt; &lt;/span&gt;* Lambda&lt;br&gt;&lt;span style=&quot;white-space: pre;&quot;&gt; &lt;/span&gt;* DB Dynamodb&lt;br&gt;* Mobile&lt;br&gt;&lt;span style=&quot;white-space: pre;&quot;&gt; &lt;/span&gt;* React native (expo)&lt;br&gt;* Serverless deployment&lt;br&gt;&lt;span style=&quot;white-space: pre;&quot;&gt; &lt;/span&gt;* AWS SAM&lt;br&gt;&lt;span style=&quot;white-space: pre;&quot;&gt; &lt;/span&gt;* CloudFormation templates&lt;br&gt;* Continous integration&lt;br&gt;&lt;span style=&quot;white-space: pre;&quot;&gt; &lt;/span&gt;* Gitlab ci: pipeline (lint, test, build Android, biuld, web app, deploy)&lt;br&gt;&lt;span style=&quot;white-space: pre;&quot;&gt; &lt;/span&gt;* Playstore" style="text;html=1;strokeColor=none;fillColor=none;align=left;verticalAlign=top;whiteSpace=wrap;rounded=0;" vertex="1" parent="1">
          <mxGeometry x="81" y="720" width="500" height="190" as="geometry" />
        </mxCell>
        <mxCell id="nqwbrudDcvA_D_fQsMDn-6" value="" style="edgeStyle=orthogonalEdgeStyle;rounded=0;orthogonalLoop=1;jettySize=auto;html=1;" edge="1" parent="1" source="nqwbrudDcvA_D_fQsMDn-1" target="nqwbrudDcvA_D_fQsMDn-4">
          <mxGeometry relative="1" as="geometry">
            <Array as="points">
              <mxPoint x="410" y="433" />
              <mxPoint x="410" y="433" />
            </Array>
          </mxGeometry>
        </mxCell>
        <mxCell id="nqwbrudDcvA_D_fQsMDn-1" value="API WEB" style="outlineConnect=0;dashed=0;verticalLabelPosition=bottom;verticalAlign=top;align=center;html=1;shape=mxgraph.aws3.api_gateway;fillColor=#D9A741;gradientColor=none;" vertex="1" parent="1">
          <mxGeometry x="427.95" y="370" width="76.5" height="93" as="geometry" />
        </mxCell>
        <mxCell id="nqwbrudDcvA_D_fQsMDn-5" style="edgeStyle=orthogonalEdgeStyle;rounded=0;orthogonalLoop=1;jettySize=auto;html=1;" edge="1" parent="1" source="nqwbrudDcvA_D_fQsMDn-4">
          <mxGeometry relative="1" as="geometry">
            <mxPoint x="430" y="410" as="targetPoint" />
            <Array as="points">
              <mxPoint x="430" y="410" />
            </Array>
          </mxGeometry>
        </mxCell>
        <mxCell id="nqwbrudDcvA_D_fQsMDn-4" value="desktop" style="sketch=0;outlineConnect=0;gradientColor=none;fontColor=#545B64;strokeColor=none;fillColor=#879196;dashed=0;verticalLabelPosition=bottom;verticalAlign=top;align=center;html=1;fontSize=12;fontStyle=0;aspect=fixed;shape=mxgraph.aws4.illustration_desktop;pointerEvents=1" vertex="1" parent="1">
          <mxGeometry x="281" y="387" width="100" height="91" as="geometry" />
        </mxCell>
        <mxCell id="nqwbrudDcvA_D_fQsMDn-7" value="" style="endArrow=classic;html=1;rounded=0;" edge="1" parent="1">
          <mxGeometry width="50" height="50" relative="1" as="geometry">
            <mxPoint x="370" y="390" as="sourcePoint" />
            <mxPoint x="420" y="340" as="targetPoint" />
          </mxGeometry>
        </mxCell>
      </root>
    </mxGraphModel>
  </diagram>
</mxfile>
